HIERARCHY
ROOT RootJoint
{
    OFFSET   0.000000   0.000000   0.000000
    CHANNELS 6 Xposition Yposition Zposition Xrotation Yrotation Zrotation
    JOINT pelvis_lowerback
    {
        OFFSET   0.000000   0.093605   0.000000
        CHANNELS 3 Xrotation Yrotation Zrotation
        JOINT lowerback_torso
        {
            OFFSET   0.000000   0.100000   0.000000
            CHANNELS 3 Xrotation Yrotation Zrotation
            JOINT torso_head
            {
                OFFSET   0.000000   0.282350   0.000000
                CHANNELS 3 Xrotation Yrotation Zrotation
                End Site
                {
                    OFFSET   0.000000   0.192650   0.000000
                }
            }
            JOINT rTorso_Clavicle
            {
                OFFSET  -0.001000   0.157500   0.000000
                CHANNELS 3 Xrotation Yrotation Zrotation
                JOINT rShoulder
                {
                    OFFSET  -0.117647   0.000000   0.000000
                    CHANNELS 3 Xrotation Yrotation Zrotation
                    JOINT rElbow
                    {
                        OFFSET  -0.245000   0.000000   0.000000
                        CHANNELS 3 Xrotation Yrotation Zrotation
                        JOINT rWrist
                        {
                            OFFSET  -0.240000   0.000000   0.000000
                            CHANNELS 3 Xrotation Yrotation Zrotation
                            End Site
                            {
                                OFFSET  -0.116353  -0.002500   0.000000
                            }
                        }
                    }
                }
            }
            JOINT lTorso_Clavicle
            {
                OFFSET   0.001000   0.157500   0.000000
                CHANNELS 3 Xrotation Yrotation Zrotation
                JOINT lShoulder
                {
                    OFFSET   0.117647   0.000000   0.000000
                    CHANNELS 3 Xrotation Yrotation Zrotation
                    JOINT lElbow
                    {
                        OFFSET   0.245000   0.000000   0.000000
                        CHANNELS 3 Xrotation Yrotation Zrotation
                        JOINT lWrist
                        {
                            OFFSET   0.240000   0.000000   0.000000
                            CHANNELS 3 Xrotation Yrotation Zrotation
                            End Site
                            {
                                OFFSET   0.116353  -0.002500   0.000000
                            }
                        }
                    }
                }
            }
        }
    }
    JOINT rHip
    {
        OFFSET  -0.100000  -0.051395   0.000000
        CHANNELS 3 Xrotation Yrotation Zrotation
        JOINT rKnee
        {
            OFFSET   0.000000  -0.410000   0.000000
            CHANNELS 3 Xrotation Yrotation Zrotation
            JOINT rAnkle
            {
                OFFSET   0.000000  -0.390000   0.000000
                CHANNELS 3 Xrotation Yrotation Zrotation
                JOINT rToeJoint
                {
                    OFFSET   0.000000  -0.050000   0.130000
                    CHANNELS 3 Xrotation Yrotation Zrotation
                    End Site
                    {
                        OFFSET  -0.010000   0.002000   0.060000
                    }
                }
            }
        }
    }
    JOINT lHip
    {
        OFFSET   0.100000  -0.051395   0.000000
        CHANNELS 3 Xrotation Yrotation Zrotation
        JOINT lKnee
        {
            OFFSET   0.000000  -0.410000   0.000000
            CHANNELS 3 Xrotation Yrotation Zrotation
            JOINT lAnkle
            {
                OFFSET   0.000000  -0.390000   0.000000
                CHANNELS 3 Xrotation Yrotation Zrotation
                JOINT lToeJoint
                {
                    OFFSET   0.000000  -0.050000   0.130000
                    CHANNELS 3 Xrotation Yrotation Zrotation
                    End Site
                    {
                        OFFSET   0.010000   0.002000   0.060000
                    }
                }
            }
        }
    }
}
MOTION
Frames: 17
Frame Time:   0.008333
 -2.649831   0.923245   3.215378  26.414501 -58.180814  30.358613   2.466126  -7.435217   5.524427   0.107106  -2.494723   4.075242  -8.468660 -10.360665  -2.951694   4.462119   8.699049  -2.028110   0.176217   6.777487  38.556289   0.001920  51.746495  -0.000858  -1.179882   3.273239  -4.618006   7.854352  -5.955876   0.273705  13.653350 -22.146695 -31.211710  -0.050379 -80.299555  -0.081607   0.934817  -5.297509   3.435171 -35.466480 -20.516650 -17.292720  19.763175   0.000926   0.001284   3.138144 -19.039477  -1.609915  -5.115247   0.008117   0.001758 -20.286709  27.619507   5.171928  21.820087  -0.033620  -0.031603  13.616696  35.033099  -5.652197 -16.620481  -0.008102  -0.031245
 -2.653784   0.923103   3.212376  26.471711 -58.576840  30.973282   2.601449  -7.511125   5.729270   0.130985  -2.700089   4.094957  -8.603512 -10.355834  -3.171566   4.223233   8.198273  -2.080768  -0.444616   5.793736  37.372636   0.027795  50.765585  -0.028450  -1.086182   3.711846  -4.418007   7.631994  -5.954433   0.047794  13.641407 -21.549368 -30.729273  -0.011245 -78.476028  -0.056302   1.111690  -6.100632   3.240622 -35.232086 -19.627703 -17.361704  20.217752   0.000594   0.002349   2.093501 -18.646548  -1.630864  -4.805429   0.005865   0.003243 -20.719533  26.772837   5.561873  23.977245  -0.045742  -0.043239  14.004461  33.422429  -6.345708 -15.479195  -0.012236  -0.050164
 -2.657688   0.923059   3.209549  26.380451 -58.927075  31.484659   2.735592  -7.574365   5.918964   0.171180  -2.914726   4.076970  -8.724963 -10.344710  -3.380871   3.985445   7.649490  -2.215001  -1.040590   4.796268  36.148654   0.047860  49.775807  -0.048730  -1.026125   3.767471  -4.528783   7.414909  -5.923085  -0.164123  13.628210 -20.914151 -30.246177   0.022001 -76.660898  -0.033148   1.252427  -6.326406   3.234388 -34.991604 -18.734818 -17.523349  20.736305   0.000464   0.003581   1.109994 -18.261966  -1.638584  -4.532141   0.004252   0.004320 -21.120808  25.957292   5.923272  26.206284  -0.056687  -0.050007  14.395068  31.869585  -6.999080 -14.018516  -0.019394  -0.069382
 -2.661589   0.923129   3.206829  26.231806 -59.245233  31.953561   2.843232  -7.635338   6.086505   0.206199  -3.122154   4.037879  -8.834468 -10.332788  -3.574138   3.765879   7.081919  -2.406919  -1.604026   3.830421  34.945217   0.061250  48.831041  -0.061703  -0.978721   3.662925  -4.785888   7.224473  -5.852638  -0.345479  13.625293 -20.283014 -29.786329   0.045753 -74.943022  -0.015489   1.375444  -6.330837   3.287755 -34.755378 -17.896210 -17.728019  21.249648   0.000370   0.004452   0.206376 -17.908903  -1.640908  -4.295163   0.003068   0.004858 -21.479184  25.196837   6.267165  28.321064  -0.064863  -0.051827  14.743025  30.418066  -7.591827 -12.664101  -0.025647  -0.079343
 -2.665481   0.923307   3.204166  26.049613 -59.536762  32.395675   2.922250  -7.696153   6.226786   0.229322  -3.319746   3.984073  -8.935294 -10.320952  -3.753506   3.563415   6.516114  -2.627469  -2.138896   2.911798  33.784889   0.069125  47.939503  -0.069034  -0.938732   3.492654  -5.107740   7.056911  -5.756076  -0.500525  13.628664 -19.669888 -29.352777   0.061924 -73.331074  -0.002265   1.488863  -6.258214   3.361015 -34.522828 -17.114956 -17.959339  21.741764   0.000274   0.004964  -0.619066 -17.586215  -1.638920  -4.095343   0.002198   0.004976 -21.804707  24.485026   6.602127  30.299475  -0.070372  -0.050276  15.051348  29.061953  -8.130432 -11.421827  -0.030420  -0.082629
 -2.669352   0.923579   3.201537  25.842199 -59.806724  32.816245   2.974971  -7.756541   6.339225   0.239225  -3.506784   3.918531  -9.029322 -10.309368  -3.921100   3.375945   5.964803  -2.858676  -2.648125   2.047135  32.678278   0.072744  47.102628  -0.072213  -0.904040   3.296369  -5.455772   6.906870  -5.644843  -0.634633  13.634009 -19.082060 -28.945660   0.072372 -71.822932   0.007577   1.595546  -6.158515   3.444842 -34.293127 -16.388205 -18.210024  22.209630   0.000168   0.005189  -1.372157 -17.290897  -1.633314  -3.932765   0.001563   0.004794 -22.104607  23.816889   6.932317  32.144528  -0.073563  -0.046639  15.325164  27.795218  -8.621239 -10.283893  -0.033664  -0.081435
 -2.673189   0.923933   3.198932  25.614028 -60.059864  33.217858   3.004453  -7.815702   6.425662   0.236365  -3.682877   3.843583  -9.117619 -10.298072  -4.078388   3.201593   5.435515  -3.090033  -3.133600   1.238670  31.629897   0.073220  46.319541  -0.072440  -0.873328   3.093745  -5.809677   6.770421  -5.526794  -0.752231  13.638641 -18.523399 -28.564413   0.078525 -70.414037   0.014804   1.696761  -6.052116   3.536428 -34.065812 -15.712549 -18.475661  22.653530   0.000051   0.005196  -2.059204 -17.020460  -1.624931  -3.806499   0.001104   0.004410 -22.383522  23.188709   7.259214  33.863474  -0.074822  -0.041851  15.569077  26.612182  -9.069662  -9.242046  -0.035512  -0.077388
 -2.676465   0.923777   3.195771  24.898206 -60.105907  33.258312   3.210646  -7.922054   6.336568   0.223016  -3.937124   3.774717  -9.179640 -10.262176  -4.339721   2.830900   4.915231  -3.312896  -4.090862   0.162904  30.397070   0.100452  44.679463  -0.097512  -0.776701   3.393592  -5.580353   6.492830  -5.520426  -0.851151  13.450937 -17.868278 -27.893034   0.121739 -67.647221   0.043233   1.854618  -6.958744   3.520022 -33.825203 -14.886203 -18.974384  23.402796   0.000776   0.008024  -3.098075 -16.397422  -1.765142  -3.384843   0.000993   0.007974 -23.122485  22.135530   7.722075  36.847557  -0.091089  -0.040717  14.741877  25.141038  -9.514917  -8.097921  -0.036982  -0.078029
 -2.679534   0.923490   3.192475  24.122582 -60.135421  33.287224   3.454037  -7.998979   6.190866   0.234259  -4.181751   3.636328  -9.235928 -10.223499  -4.599637   2.458564   4.371739  -3.628692  -5.022568  -0.892270  29.112413   0.119963  43.083550  -0.112219  -0.721220   3.341108  -5.626617   6.211331  -5.479897  -0.878757  13.270510 -17.154436 -27.181885   0.150009 -64.933622   0.061753   1.975561  -7.179711   3.688351 -33.603087 -14.066780 -19.527037  24.189251   0.001414   0.010397  -4.171628 -15.782843  -1.875413  -2.896645   0.000803   0.011433 -23.908357  21.112918   8.256985  39.796831  -0.105669  -0.034459  13.972495  23.771867  -9.949217  -7.087953  -0.037895  -0.074166
 -2.682456   0.923215   3.189137  23.356227 -60.156121  33.350829   3.699781  -8.061717   6.009670   0.258194  -4.406498   3.450507  -9.282523 -10.186266  -4.849194   2.101681   3.820283  -4.006330  -5.916663  -1.894962  27.831348   0.131376  41.577039  -0.118490  -0.679622   3.154948  -5.827849   5.952954  -5.396686  -0.865803  13.104319 -16.439197 -26.491032   0.163373 -62.370855   0.071141   2.077029  -7.132737   3.938740 -33.402405 -13.286607 -20.105356  24.948565   0.001817   0.011841  -5.196581 -15.203491  -1.964193  -2.415685   0.000596   0.013776 -24.690457  20.130916   8.839850  42.549302  -0.116323  -0.024979  13.255476  22.500455 -10.372511  -6.161533  -0.038102  -0.068114
 -2.685247   0.922997   3.185801  22.612150 -60.173266  33.459436   3.937405  -8.115737   5.796907   0.288493  -4.612306   3.230278  -9.321111 -10.151140  -5.086404   1.761949   3.275811  -4.415372  -6.773036  -2.835218  26.579159   0.136235  40.163652  -0.118951  -0.645636   2.921663  -6.112632   5.720401  -5.284908  -0.833411  12.951309 -15.743336 -25.836383   0.166193 -59.967473   0.074356   2.167468  -6.992648   4.216662 -33.219385 -12.551809 -20.705788  25.661861   0.001994   0.012428  -6.155502 -14.666146  -2.037467  -1.956345   0.000396   0.015044 -25.452681  19.186824   9.453262  45.096900  -0.123086  -0.014160  12.584596  21.319415 -10.782493  -5.315318  -0.037634  -0.060936
 -2.687916   0.922854   3.182505  21.894078 -60.192480  33.614176   4.162936  -8.163010   5.558363   0.321597  -4.800559   2.984431  -9.353679 -10.118115  -5.311229   1.439227   2.748558  -4.836221  -7.592339  -3.709459  25.369609   0.136109  38.841475  -0.115587  -0.616784   2.676186  -6.442815   5.511683  -5.156504  -0.793714  12.809362 -15.076848 -25.223088   0.162189 -57.719272   0.073668   2.250474  -6.821989   4.497795 -33.050973 -11.860165 -21.326346  26.325994   0.001998   0.012357  -7.043662 -14.170046  -2.098409  -1.525943   0.000217   0.015431 -26.187057  18.278640  10.085755  47.454050  -0.126465  -0.003273  11.956076  20.222114 -11.177657  -4.543503  -0.036621  -0.053376
 -2.690467   0.922788   3.179277  21.203365 -60.218447  33.812852   4.374570  -8.204442   5.300459   0.355233  -4.972319   2.720354  -9.381682 -10.087091  -5.523930   1.132944   2.244946  -5.256679  -8.375262  -4.517504  24.210209   0.132355  37.606843  -0.109830  -0.591565   2.435491  -6.796157   5.324097  -5.019689  -0.753482  12.676763 -14.444570 -24.652193   0.154077 -55.618941   0.070627   2.327930  -6.646151   4.770525 -32.894808 -11.208710 -21.964508  26.942051   0.001877   0.011818  -7.861912 -13.713286  -2.149643  -1.126965   0.000061   0.015154 -26.888709  17.404936  10.728658  49.637021  -0.127046   0.006884  11.366900  19.202439 -11.557044  -3.839895  -0.035195  -0.045928
 -2.692560   0.922351   3.175338  20.373896 -60.005185  33.834574   4.638392  -8.293767   4.957462   0.361253  -5.288186   2.533570  -9.440477  -9.986638  -5.817790   0.748305   1.805785  -5.527696  -9.428993  -5.315567  22.774448   0.140962  35.971875  -0.113597  -0.538720   2.403312  -6.919667   4.998695  -4.925434  -0.795255  12.337122 -13.680161 -23.843853   0.171434 -52.528203   0.085429   2.440603  -7.222818   4.910604 -32.691947 -10.403144 -22.606659  27.618643   0.002642   0.013846  -8.829380 -13.000772  -2.262231  -0.546959   0.000429   0.019510 -28.029704  16.297793  11.647607  52.101356  -0.132165   0.022635  10.718649  18.514979 -11.927283  -3.175906  -0.033910  -0.036372
 -2.694371   0.921813   3.171217  19.520220 -59.751657  33.870253   4.943862  -8.376506   4.561249   0.383249  -5.601253   2.305743  -9.497664  -9.890363  -6.107708   0.375260   1.364093  -5.831941 -10.443726  -6.067484  21.357807   0.144806  34.416206  -0.112183  -0.511755   2.204211  -7.190307   4.667391  -4.813660  -0.762722  12.000862 -12.892107 -23.007627   0.178947 -49.553212   0.092891   2.510688  -7.301901   5.235684 -32.500132  -9.603011 -23.291781  28.288572   0.003297   0.015483  -9.812882 -12.299651  -2.336386   0.101089   0.000619   0.023849 -29.249326  15.168712  12.683148  54.399547  -0.134792   0.038656  10.113194  17.883082 -12.279163  -2.583453  -0.032163  -0.027583
 -2.695950   0.921298   3.167136  18.685448 -59.507735  33.972589   5.266436  -8.443975   4.132489   0.426347  -5.888479   2.036839  -9.544792  -9.800010  -6.389074   0.020573   0.928896  -6.166225 -11.413018  -6.762170  19.982509   0.144228  32.957929  -0.107197  -0.493712   1.955011  -7.537270   4.356298  -4.678112  -0.691210  11.680033 -12.123478 -22.196717   0.177164 -46.756711   0.093843   2.562014  -7.200187   5.636702 -32.327346  -8.834421 -24.024492  28.920377   0.003672   0.016158 -10.758593 -11.642798  -2.390883   0.768341   0.000731   0.026894 -30.462306  14.040048  13.769007  56.494538  -0.134715   0.052434   9.545108  17.298573 -12.613244  -2.048018  -0.030238  -0.019996
 -2.697317   0.921324   3.163492  18.020061 -59.619185  34.308658   5.697425  -8.375627   3.686605   0.540360  -6.057125   1.707917  -9.585400  -9.711652  -6.663992  -0.324014   0.563536  -6.515237 -12.350922  -7.363922  18.660497   0.139509  31.604213  -0.099873  -0.476248   1.733644  -7.937275   4.081249  -4.512286  -0.639098  11.384185 -11.377979 -21.447070   0.167440 -44.131800   0.088018   2.599702  -7.006283   6.054248 -32.554060  -8.443901 -24.796672  29.785128   0.001631   0.012044 -11.163526 -11.493329  -2.365553   0.608670   0.000768   0.021506 -31.430146  12.988927  14.871024  58.411435  -0.134956   0.059770   9.011138  16.758359 -12.929216  -1.554875  -0.029093  -0.014446
